<svg id="svg" version="1.1" width="594" height="146" xmlns="http://www.w3.org/2000/svg" xmlns:xlink="http://www.w3.org/1999/xlink" ><g id="svgg"><path id="path0" d="M22.215 1.260 C 13.870 3.932,6.324 10.593,2.502 18.662 L 0.337 23.232 0.147 60.774 L -0.043 98.316 186.868 98.316 C 373.714 98.316,373.781 98.316,377.891 96.932 C 388.345 93.410,396.247 85.012,399.083 74.411 C 399.781 71.803,399.986 63.033,399.992 35.522 L 400.000 0.000 212.963 0.036 C 36.171 0.070,25.723 0.138,22.215 1.260 M393.803 38.552 C 393.598 70.503,393.570 71.105,392.074 74.747 C 388.992 82.251,383.847 87.347,376.158 90.509 L 372.727 91.919 189.364 92.095 L 6.001 92.270 6.199 59.398 L 6.397 26.526 8.938 21.388 C 11.611 15.980,15.589 11.790,20.371 9.345 C 26.938 5.986,17.096 6.152,211.989 6.105 L 394.011 6.061 393.803 38.552 M45.118 21.202 C 38.367 23.375,34.343 28.787,34.343 35.697 C 34.343 44.514,38.798 47.873,55.356 51.543 C 64.386 53.544,67.800 55.217,69.075 58.267 C 74.494 71.237,51.220 76.639,40.417 64.919 L 37.674 61.944 34.999 63.309 C 31.885 64.897,31.907 64.824,33.706 67.734 C 41.987 81.134,69.400 81.096,75.511 67.677 C 80.484 56.758,74.047 49.057,56.624 45.082 C 42.494 41.858,38.642 38.312,42.069 31.685 C 45.516 25.019,65.145 25.031,68.714 31.701 C 69.683 33.511,75.397 31.603,75.416 29.463 C 75.473 23.230,55.629 17.820,45.118 21.202 M317.062 22.131 C 290.418 30.908,293.238 72.678,320.798 77.477 C 328.879 78.884,338.085 76.484,344.276 71.354 L 346.801 69.262 346.801 58.200 L 346.801 47.138 334.680 47.138 L 322.559 47.138 322.559 50.168 L 322.559 53.199 331.313 53.199 L 340.067 53.199 340.067 59.492 C 340.067 66.695,339.962 66.871,334.005 69.644 C 316.229 77.918,298.595 57.960,307.278 39.394 C 313.056 27.037,330.855 23.083,339.263 32.288 L 341.125 34.327 343.627 32.628 C 352.636 26.506,330.424 17.729,317.062 22.131 M94.952 22.054 C 94.954 22.332,98.836 34.680,103.580 49.495 L 112.205 76.431 115.641 76.633 L 119.077 76.834 124.559 59.798 C 133.365 32.432,133.102 33.152,133.729 34.680 C 134.032 35.421,137.215 45.118,140.802 56.229 L 147.323 76.431 150.730 76.633 L 154.137 76.836 163.005 49.697 C 167.882 34.771,172.007 22.332,172.171 22.054 C 172.336 21.776,170.805 21.549,168.769 21.549 L 165.068 21.549 158.231 42.593 C 154.470 54.167,151.174 63.868,150.907 64.150 C 150.639 64.433,147.374 55.039,143.651 43.275 L 136.882 21.886 133.460 21.683 L 130.038 21.481 122.816 43.472 L 115.594 65.464 112.963 57.143 C 111.516 52.566,108.371 42.685,105.974 35.185 L 101.617 21.549 98.283 21.549 C 96.450 21.549,94.951 21.776,94.952 22.054 M196.633 49.495 L 196.633 77.441 200.000 77.441 L 203.367 77.441 203.367 49.495 L 203.367 21.549 200.000 21.549 L 196.633 21.549 196.633 49.495 M232.323 49.460 L 232.323 77.441 235.681 77.441 L 239.039 77.441 239.216 55.630 L 239.394 33.819 254.209 55.264 L 269.024 76.709 272.559 76.738 L 276.094 76.768 276.094 49.158 L 276.094 21.549 272.737 21.549 L 269.379 21.549 269.201 43.158 L 269.024 64.768 254.150 43.327 L 239.276 21.886 235.800 21.682 L 232.323 21.478 232.323 49.460 M362.290 31.380 L 362.290 41.211 368.406 40.976 C 384.161 40.370,383.759 21.549,367.990 21.549 L 362.290 21.549 362.290 31.380 M372.758 27.242 C 376.283 30.768,374.279 36.148,369.185 36.831 L 366.330 37.214 366.330 31.402 L 366.330 25.589 368.717 25.589 C 370.354 25.589,371.625 26.109,372.758 27.242 " stroke="none" fill="#000000" fill-rule="evenodd"></path></g></svg>